<svg width="929" height="460" viewBox="0 0 929 460" fill="none" xmlns="http://www.w3.org/2000/svg">
<path d="M902.949 5C906.629 7.16368 909.418 9.46923 912.262 12.6875C913.093 13.5499 913.093 13.5499 913.941 14.4297C925.619 26.9096 928.759 42.9513 928.52 59.6133C927.399 82.6368 919.728 104.268 903.262 120.688C893.443 129.195 880.65 134.54 869.079 140.27C862.345 143.616 855.681 147.091 849.012 150.562C840.162 155.168 831.283 159.703 822.346 164.136C815.883 167.351 809.496 170.7 803.119 174.081C797.606 176.998 792.05 179.812 786.46 182.579C780.851 185.367 775.304 188.269 769.762 191.188C762.997 194.75 756.207 198.243 749.353 201.631C743.836 204.371 738.394 207.244 732.949 210.125C726.249 213.664 719.506 217.051 712.637 220.25C701.643 225.373 690.979 231.08 680.297 236.816C671.365 241.609 662.344 246.188 653.262 250.688C642.911 255.818 632.599 260.996 622.408 266.436C615.096 270.329 607.684 274.011 600.262 277.688C590.009 282.77 579.767 287.857 569.696 293.293C562.305 297.261 554.772 300.952 547.262 304.688C524.43 315.986 524.43 315.986 501.825 327.728C491.852 333.024 481.705 337.99 471.588 343.006C463.349 347.098 455.164 351.275 447.05 355.613C441.38 358.644 435.649 361.542 429.887 364.395C408.885 374.776 408.885 374.776 388.103 385.588C380.896 389.437 373.582 393.062 366.262 396.688C356.009 401.77 345.767 406.857 335.696 412.293C328.305 416.261 320.772 419.952 313.262 423.688C307.657 426.478 302.052 429.268 296.449 432.062C295.709 432.432 294.969 432.801 294.207 433.181C285.656 437.449 277.131 441.75 268.699 446.25C262.806 449.393 256.862 452.393 250.824 455.25C250.119 455.585 249.414 455.92 248.687 456.266C231.022 464.506 213.301 456.65 196.207 450.453C192.93 449.25 189.658 448.033 186.387 446.812C185.209 446.377 185.209 446.377 184.008 445.934C168.393 440.135 154.283 433.277 141.262 422.688C140.755 422.277 140.248 421.866 139.725 421.442C123.711 408.393 109.145 393.734 94.5703 379.126C92.2123 376.764 89.851 374.405 87.4878 372.048C85.1912 369.755 82.8985 367.46 80.6055 365.164C79.77 364.331 78.9344 363.497 78.0736 362.638C73.8075 358.355 69.7095 353.994 65.7664 349.412C63.8896 347.261 61.9048 345.249 59.8594 343.258C58.7427 342.16 58.7427 342.16 57.6035 341.039C56.0583 339.53 54.5113 338.022 52.9629 336.516C52.2275 335.791 51.4921 335.067 50.7344 334.32C49.7329 333.344 49.7329 333.344 48.7112 332.348C41.5 325 44.5 328 44.5 326C46 327 45.9417 328.688 45.2617 328.688C43.8669 327.267 43.8669 327.267 42.2266 325.273C37.2772 319.45 31.7881 314.2 26.3184 308.871C25.5378 308.102 24.7573 307.332 23.9531 306.539C23.2436 305.846 22.534 305.154 21.803 304.44C20.2617 302.688 13.5 296.5 20.2617 300.688C19.6017 300.688 18.9417 300.688 18.2617 300.688C16.457 298.598 16.457 298.598 14.3867 295.75C13.7087 294.833 13.0306 293.917 12.332 292.973C4.90955 281.195 0.947239 265.939 0.5 252.074C1.9407 247.56 5.08262 244.031 9.10327 241.552C11.1486 240.601 13.1959 239.81 15.3242 239.062C16.1008 238.778 16.8774 238.494 17.6775 238.201C33.4385 232.632 54.0876 225.859 70.4727 232.723C77.1519 236.325 79.9017 240.724 82.2617 247.688C82.8765 251.045 83.0652 254.362 83.2031 257.77C83.2838 259.173 83.2839 259.173 83.3662 260.604C83.5352 263.569 83.6818 266.534 83.8242 269.5C83.8255 287.079 83.8255 287.079 88.2617 303.688C91.5649 306.227 94.1674 307.07 98.2891 307.277C99.2398 307.337 100.191 307.397 101.17 307.458C102.67 307.541 102.67 307.541 104.199 307.625C129.425 309.42 129.425 309.42 137.871 318.398C138.436 319.222 138.436 319.222 139.012 320.062C139.398 320.606 139.785 321.15 140.184 321.711C143.707 328.171 143.607 334.503 143.762 341.688C144.411 362.461 146.351 381.713 162.262 396.688C170.62 403.628 180.792 406.749 190.996 409.971C192.843 410.555 194.681 411.17 196.516 411.793C217.806 418.244 241.944 411.814 262.262 404.688C262.98 404.442 263.698 404.196 264.438 403.942C312.286 387.857 312.286 387.857 347.262 354.688C349.929 346.441 348.86 337.118 345.578 329.25C340.661 319.679 332.924 312.51 322.762 308.75C308.689 305.193 295.292 307.371 282.949 314.688C266.547 325.684 251.523 340.517 239.367 356.012C236.44 359.732 233.357 363.314 230.278 366.91C227.464 370.213 224.81 373.594 222.199 377.062C216.062 384.781 207.544 390.832 197.602 392C189.711 392.347 184.971 390.189 178.574 385.875C169.979 377.745 167.078 366.646 163.949 355.562C163.34 353.437 162.731 351.312 162.121 349.188C161.66 347.571 161.66 347.571 161.189 345.922C160.005 341.793 158.792 337.673 157.578 333.552C154.227 322.154 151.029 310.72 147.955 299.244C147.467 297.444 146.967 295.648 146.459 293.854C143.503 283.352 140.595 270.232 144.262 259.562C147.521 254.877 151.908 252.472 157.262 250.688C191.776 248.556 223.401 256.199 256.305 265.691C262.674 267.526 269.056 269.313 275.449 271.062C276.315 271.301 277.18 271.539 278.072 271.785C280.464 272.436 282.862 273.064 285.262 273.688C285.969 273.885 286.676 274.082 287.404 274.285C294.084 276.002 300.645 275.989 307.512 275.938C308.786 275.934 310.06 275.93 311.373 275.926C320.015 275.849 328.584 275.377 337.199 274.688C366.338 272.464 394.392 273.602 423.308 277.729C437.177 279.688 450.928 281.081 464.949 281.062C465.626 281.062 466.304 281.062 467.001 281.062C499.697 280.961 529.595 270.829 558.262 255.688C558.948 255.325 559.635 254.963 560.342 254.589C563.199 253.079 566.053 251.565 568.905 250.045C573.679 247.506 578.484 245.036 583.324 242.625C583.983 242.297 584.642 241.968 585.321 241.63C588.582 240.01 591.848 238.4 595.117 236.797C603.494 232.672 611.687 228.283 619.85 223.75C624.833 220.994 629.841 218.33 634.949 215.812C650.265 208.264 665.41 200.372 680.293 192.002C684.196 189.813 688.116 187.718 692.137 185.75C697.642 183.04 703.053 180.171 708.449 177.25C709.697 176.586 709.697 176.586 710.97 175.908C720.35 170.79 729.312 165.19 732.957 154.684C733.827 150.643 733.276 148.04 731.262 144.438C726.779 138.139 720.705 136.044 713.262 134.688C710.027 134.393 706.821 134.354 703.574 134.375C702.661 134.38 701.747 134.385 700.806 134.39C683.725 134.675 667.083 138.376 650.456 142C647.212 142.698 643.963 143.366 640.711 144.027C623.31 147.6 606.177 151.962 589.05 156.652C585.761 157.551 582.469 158.436 579.176 159.316C558.869 164.824 540.934 172.188 523.262 183.688C522.655 184.08 522.048 184.473 521.422 184.877C518.002 187.099 514.63 189.387 511.262 191.688C509.242 193.022 507.221 194.355 505.199 195.688C494.706 202.692 484.582 210.172 475.062 218.461C463.588 228.431 454.112 234.33 438.5 233.988C428.564 233.065 421.927 227.825 415.262 220.688C407.536 211.354 404.479 201.394 404.895 189.328C406.001 178.358 410.88 170.799 419.262 163.688C427.776 158.179 436.418 155.601 446.262 153.688C449.746 152.917 453.222 152.113 456.699 151.312C458.605 150.878 460.512 150.445 462.418 150.012C463.381 149.793 464.344 149.574 465.336 149.349C468.237 148.693 471.14 148.043 474.043 147.395C485.822 144.757 485.822 144.757 497.512 141.75C510.657 138.156 524.006 135.312 537.301 132.332C548.825 129.753 548.825 129.753 560.262 126.812C568.289 124.625 576.384 122.76 584.49 120.889C593.465 118.816 602.428 116.698 611.387 114.555C669.108 100.761 669.108 100.761 693.395 97.1228C695.556 96.7947 697.711 96.4329 699.863 96.0547C729.575 91.2179 758.606 97.0932 787.465 103.869C795.722 105.792 803.871 107.313 812.296 108.289C815.262 108.688 815.262 108.688 818.262 109.688C826.923 110.437 835.834 109.75 842.824 104.125C845.748 101.201 846.173 100.471 846.637 96.375C846.567 92.6393 846.567 92.6393 844.324 90C838.753 85.7928 833.106 83.8117 826.324 82.3125C817.439 80.2186 810.104 75.6982 804.262 68.6875C801.389 62.9426 801.143 56.2341 803.066 50.1367C808.297 38.5383 818.262 31.9532 828.887 25.6875C830.054 24.988 831.221 24.2875 832.387 23.5859C834.662 22.219 836.941 20.8596 839.224 19.5039C841.722 18.01 844.198 16.4909 846.66 14.9375C864.328 3.82744 882.553 -5.61535 902.949 5ZM842.262 29.6875C841.351 30.2441 840.44 30.8006 839.501 31.374C836.894 32.9686 834.295 34.5748 831.699 36.1875C830.92 36.6672 830.141 37.1469 829.339 37.6411C822.391 42.0195 816.385 47.4954 812.262 54.6875C811.574 58.7429 811.737 60.6862 813.637 64.3125C819.748 69.8416 827.034 71.992 834.824 74.125C843.043 76.408 849.232 79.0662 854.824 85.75C857.617 91.5676 857.484 99.0683 855.449 105.094C851.69 111.881 844.997 115.895 837.887 118.562C825.594 121.745 812.852 120.021 800.797 116.82C795.733 115.496 790.612 114.658 785.449 113.812C775.115 112.096 764.894 109.965 754.665 107.706C727.85 101.807 700.665 104.444 674.245 111.21C672.114 111.723 669.979 112.157 667.828 112.578C660.36 114.041 652.939 115.721 645.512 117.375C644.727 117.549 643.943 117.724 643.135 117.904C632.082 120.364 621.04 122.868 610.012 125.438C608.856 125.707 607.7 125.976 606.509 126.253C600.62 127.633 594.747 129.062 588.883 130.543C578.146 133.249 567.357 135.737 556.574 138.25C554.493 138.736 552.411 139.223 550.33 139.709C542.29 141.587 534.249 143.465 526.199 145.301C520.702 146.566 515.237 147.945 509.771 149.339C493.97 153.364 478.106 157.041 462.18 160.542C454.739 162.182 447.311 163.859 439.934 165.77C438.201 166.218 438.201 166.218 436.433 166.675C427.966 169.379 422.206 173.724 417.695 181.328C416.014 185.268 415.725 188.722 415.762 192.938C415.769 194.064 415.769 194.064 415.777 195.212C415.978 201.652 417.503 206.393 421.262 211.688C421.696 212.341 422.131 212.995 422.578 213.668C426.78 219.282 432.646 222.69 439.484 224.168C449.961 224.871 458.89 218.699 466.465 212.184C468.313 210.535 470.156 208.881 471.996 207.223C481.652 198.729 492.225 191.793 503.002 184.803C506.279 182.676 509.544 180.532 512.809 178.387C539.016 161.261 564.401 152.456 594.604 144.643C598.345 143.666 602.077 142.656 605.809 141.645C612.879 139.755 619.986 138.116 627.137 136.562C628.281 136.311 629.426 136.06 630.605 135.801C632.821 135.314 635.037 134.829 637.252 134.345C643.23 133.039 649.194 131.707 655.137 130.25C663.015 128.428 670.966 127.204 678.962 126.028C681.072 125.716 683.178 125.387 685.285 125.055C701.704 122.611 718.937 121.953 733.262 131.688C739.478 137.33 743.132 142.449 743.637 150.938C743.344 160.122 739.075 166.513 733.066 173.168C725.978 179.536 717.983 184.11 709.512 188.375C707.486 189.412 705.461 190.451 703.438 191.492C702.415 192.018 701.392 192.543 700.338 193.085C695.417 195.648 690.559 198.323 685.699 201C678.79 204.796 671.852 208.455 664.777 211.934C660.594 214.021 656.458 216.191 652.324 218.375C645.23 222.124 638.127 225.854 631.012 229.562C630.051 230.063 629.091 230.564 628.101 231.08C624.169 233.13 620.237 235.179 616.305 237.229C613.374 238.756 610.443 240.284 607.512 241.812C606.081 242.558 606.081 242.558 604.622 243.319C599.31 246.09 594.007 248.875 588.711 251.676C580.27 256.137 571.779 260.477 563.222 264.711C561.21 265.713 559.206 266.73 557.203 267.75C544.235 274.343 531.231 280.058 517.242 284.113C515.328 284.668 513.42 285.242 511.512 285.816C496.616 290.092 481.731 291.027 466.305 290.948C463.829 290.938 461.353 290.948 458.877 290.961C447.875 290.972 437.161 290.135 426.262 288.688C425.083 288.533 425.083 288.533 423.88 288.375C420.574 287.94 417.269 287.503 413.963 287.067C375.05 281.403 375.05 281.403 336.336 285.193C332.801 286.035 329.18 285.934 325.562 285.996C324.275 286.019 324.275 286.019 322.961 286.043C304.893 286.307 287.967 286.235 270.583 280.732C266.647 279.494 262.688 278.346 258.723 277.203C253.583 275.717 248.451 274.212 243.328 272.669C230.646 268.856 218.089 265.377 204.949 263.5C203.861 263.336 202.772 263.171 201.65 263.002C191.575 261.507 181.702 260.507 171.512 260.5C170.606 260.488 169.699 260.475 168.766 260.463C163.884 260.452 159.799 260.654 155.262 262.688C152.624 265.325 152.933 266.563 152.887 270.25C153.234 287.986 160.354 305.826 165.262 322.688C165.871 324.797 166.481 326.906 167.09 329.016C168.509 333.925 169.951 338.828 171.398 343.729C172.3 346.818 173.172 349.914 174.043 353.012C174.636 355.07 175.23 357.129 175.824 359.188C176.081 360.125 176.337 361.063 176.602 362.029C178.808 369.554 182.206 375.03 188.137 380.188C192.052 382.067 195.063 382.636 199.262 381.688C211.091 376.898 218.474 365.811 226.007 356.035C230.235 350.597 234.843 345.578 239.566 340.57C241.668 338.322 243.669 336.051 245.637 333.688C257.707 319.805 272.914 306.185 290.262 299.688C291.14 299.35 292.017 299.012 292.922 298.664C307.296 293.938 320.995 296.166 334.262 302.688C337.252 304.429 339.732 306.336 342.262 308.688C342.923 309.237 343.584 309.786 344.266 310.352C351.223 316.557 355.335 324.907 358.262 333.688C358.997 347.729 358.511 359.376 349.262 370.688C339.353 381.584 324.311 388.407 311.262 394.688C309.994 395.326 308.729 395.968 307.465 396.613C289.857 405.597 272.153 412.806 253.262 418.688C252.169 419.036 252.169 419.036 251.054 419.392C240.28 422.792 229.476 423.918 218.262 424.688C216.682 424.815 216.682 424.815 215.07 424.945C207.115 425.301 199.797 422.962 192.262 420.688C190.583 420.202 190.583 420.202 188.871 419.707C176.911 416.168 166.161 412.437 156.262 404.688C154.684 403.543 154.684 403.543 153.074 402.375C139.016 388.942 134.423 370.08 133.993 351.306C133.922 347.938 133.889 344.578 133.903 341.209C133.998 332.442 133.998 332.442 129.972 324.998C123.101 319.734 115.185 319.091 106.824 318.688C87.4022 317.33 87.4022 317.33 80.7617 310.562C75.3855 303.008 74.7536 293.903 74.2344 284.914C74.0804 282.686 73.9261 280.458 73.7715 278.23C73.5438 274.755 73.3221 271.279 73.1077 267.802C72.8948 264.422 72.6596 261.043 72.4219 257.664C72.3644 256.622 72.307 255.581 72.2478 254.507C71.9155 248.913 71.9155 248.913 69.3455 244.08C61.2419 238.666 51.1449 240.183 42.0117 241.812C35.009 243.32 28.4656 245.637 21.8203 248.285C18.6602 249.53 15.4939 250.647 12.2617 251.688C11.7082 268.293 15.8625 282.376 27.2617 294.688C29.945 297.455 32.6635 300.186 35.4297 302.871C38.2801 305.644 40.9794 308.473 43.5703 311.492C47.725 316.304 52.2333 320.731 56.7617 325.188C65.8627 334.145 65.8627 334.145 69.4766 338.402C75.0351 344.878 81.2615 350.753 87.3242 356.75C89.8181 359.217 92.3085 361.688 94.7969 364.16C95.3564 364.711 95.9159 365.263 96.4924 365.831C99.8175 369.135 102.895 372.568 105.918 376.15C107.501 377.961 109.197 379.513 111.055 381.039C115.839 385.113 120.178 389.578 124.574 394.062C131.189 400.742 137.802 406.959 145.262 412.688C146.445 413.689 146.445 413.689 147.652 414.711C163.771 428.282 183.585 435.023 203.262 441.688C204.162 441.993 205.062 442.298 205.989 442.612C208.849 443.579 211.711 444.541 214.574 445.5C215.476 445.802 216.378 446.105 217.308 446.416C218.155 446.698 219.002 446.979 219.875 447.27C220.626 447.519 221.376 447.769 222.15 448.027C231.42 450.928 238.733 450.229 247.324 445.75C248.547 445.142 248.547 445.142 249.794 444.522C252.297 443.268 254.781 441.984 257.262 440.688C258.01 440.298 258.758 439.908 259.528 439.507C263.091 437.643 266.64 435.756 270.184 433.855C273.992 431.82 277.833 429.861 281.699 427.938C282.648 427.465 282.648 427.465 283.617 426.984C285.017 426.288 286.417 425.594 287.817 424.899C301.513 418.109 315.201 411.316 328.702 404.145C334.165 401.248 339.674 398.461 345.217 395.721C350.344 393.175 355.398 390.504 360.449 387.812C368.004 383.795 375.67 380.078 383.414 376.442C390.191 373.242 396.828 369.824 403.443 366.301C411.595 361.961 419.857 357.855 428.136 353.761C442.283 346.757 456.292 339.48 470.219 332.047C479.185 327.27 488.228 322.756 497.424 318.437C504.104 315.283 510.646 311.916 517.164 308.44C522.859 305.407 528.605 302.491 534.387 299.625C540.642 296.522 546.852 293.352 553.012 290.062C560.221 286.216 567.497 282.528 574.817 278.899C588.418 272.156 602.012 265.414 615.417 258.288C621.862 254.871 628.38 251.613 634.915 248.371C640.323 245.679 645.682 242.909 651.012 240.062C658.221 236.216 665.497 232.528 672.817 228.899C691.634 219.603 691.634 219.603 710.262 209.938C719.922 204.787 729.73 199.936 739.53 195.058C748.544 190.57 757.522 186.035 766.406 181.293C772.966 177.806 779.61 174.495 786.262 171.188C796.211 166.238 806.079 161.161 815.892 155.945C830.169 148.368 844.516 140.953 859.031 133.84C863.127 131.826 867.199 129.767 871.262 127.688C872.153 127.233 873.045 126.779 873.963 126.311C894.268 115.885 906.545 105.56 914.254 83.2695C916.772 74.3203 917.601 65.9858 917.574 56.6875C917.59 55.5763 917.606 54.4652 917.623 53.3203C917.631 39.892 913.683 28.654 904.555 18.7383C898.394 13.2283 890.532 10.139 882.293 10.3047C867.772 12.1385 854.395 22.1977 842.262 29.6875Z" fill="#F8F8F8"/>
</svg>
