<svg width="412" height="246" viewBox="0 0 412 246" fill="none" xmlns="http://www.w3.org/2000/svg">
<path d="M329.656 9.9723C331.107 10.6085 332.564 11.2304 334.031 11.8287C351.921 19.1664 365.542 35.9461 376.718 51.2521C378.116 53.1582 379.542 55.0409 380.973 56.922C386.288 63.9256 391.483 71.0062 396.549 78.1923C398.887 81.4947 401.32 84.6769 403.875 87.8126C410.965 96.9982 412.296 105.612 411 117C408.405 126.101 401.762 133.11 393.602 137.656C384.396 142.553 374.634 146.294 365 150.25C362.853 151.137 360.706 152.025 358.56 152.914C354.168 154.731 349.775 156.547 345.381 158.36C336.848 161.886 328.332 165.452 319.818 169.022C317.173 170.131 314.528 171.239 311.883 172.347C304.793 175.316 297.704 178.286 290.615 181.257C248.222 199.028 205.826 216.732 163 233.438C162.248 233.731 161.496 234.025 160.722 234.328C155.823 236.241 150.916 238.131 146 240C145.347 240.25 144.695 240.5 144.022 240.758C142.15 241.471 140.272 242.17 138.394 242.867C137.333 243.264 136.272 243.661 135.179 244.07C128.599 245.995 121.788 246.407 115.297 243.996C109.293 240.507 105.913 235.622 104 229C102.452 219.293 104.733 213.969 110 206C110.635 205.037 111.27 204.074 111.925 203.082C114.013 199.957 116.127 196.851 118.25 193.75C118.625 193.201 119 192.653 119.386 192.087C121.917 188.386 124.456 184.692 127 181C127.522 180.24 128.045 179.479 128.583 178.695C139.912 162.258 151.673 147.897 169.691 138.613C184.511 130.919 196.928 118.532 207.625 105.813C210.44 102.467 213.601 99.5728 216.84 96.6486C221.672 92.2388 226.338 87.7056 230.902 83.0197C231.48 82.4296 232.057 81.8395 232.652 81.2316C235.008 78.8228 237.361 76.4126 239.695 73.9828C252.667 60.5056 267.433 48.355 287 47.6876C295.745 47.9174 303.411 51.2662 310 57.0001C315.79 64.0151 318.638 70.6197 318.426 79.7501C316.81 92.0793 307.692 100.645 298.418 108.067C285.742 117.309 273.472 120.732 258 121.938C246.488 122.885 237.86 125.013 227.992 131.25C227.306 131.682 226.62 132.113 225.912 132.558C216.298 138.654 206.912 145.098 197.5 151.5C176.563 165.742 176.563 165.742 166.781 171.906C166.118 172.328 165.454 172.749 164.77 173.183C160.244 176 159.262 177.599 158 176C159.5 175.5 158.99 177.568 159.5 178.375C161 181 160.086 180.514 161.402 182.223C162 183 162 183 162.762 183.832C164.937 184.967 166.816 186.268 168.812 187.688C171.679 189.456 172.92 189.994 176.375 190.25C181.637 188.436 185.618 185.378 190 182C190.755 181.426 191.511 180.853 192.289 180.262C195.419 177.857 198.505 175.412 201.539 172.887C202.392 172.182 203.246 171.477 204.125 170.75C204.891 170.106 205.656 169.461 206.445 168.797C212.616 164.457 218.008 163.582 225.312 163.5C232.4 163.419 238.295 162.289 245 160C245.997 159.674 246.995 159.347 248.023 159.01C281.761 147.89 311.701 137.807 335.344 109.934C336.566 108.506 337.822 107.106 339.094 105.723C340.161 104.561 340.161 104.561 341.25 103.375C341.894 102.682 342.539 101.988 343.203 101.274C349.053 93.8715 348.9 85.9963 348 77.0001C345.911 65.5017 337.662 55.401 328.5 48.5001C311.401 37.0444 292.963 33.3207 272.545 36.3663C245.217 42.2397 226.101 64.1087 210.615 85.757C204.243 94.6077 197.5 103.073 190 111C189.243 111.81 188.487 112.619 187.707 113.453C182.588 118.765 177.16 123.344 171.322 127.82C167.297 130.924 163.475 134.167 159.75 137.625C159.256 138.083 158.763 138.541 158.254 139.013C156.002 141.113 153.762 143.225 151.523 145.34C122.326 172.397 82.7315 184.999 46.0625 198.625C44.9497 199.039 43.8369 199.453 42.6904 199.879C25.6762 206.135 25.6762 206.135 17 205C8.33839 200.914 5.04742 192.695 1.95308 184.156C0.281541 178.621 -0.0235353 175.009 2.68745 169.688C6.31608 165.471 9.56808 163.801 15 163C18.3548 162.831 21.7037 162.81 25.0625 162.813C26.0048 162.812 26.9471 162.811 27.9179 162.811C33.8565 162.856 39.4172 163.391 45.25 164.543C67.0107 168.16 91.4115 156.991 110.625 147.813C111.673 147.314 112.721 146.815 113.801 146.301C119.078 143.707 123.894 141.258 128 137C128.752 134.891 128.752 134.891 128.437 132.75C128.366 131.582 128.366 131.582 128.293 130.391C128.102 128.834 127.877 127.281 127.613 125.735C125.81 114.645 133.208 106.3 139.25 97.5626C139.976 96.4946 140.701 95.4267 141.449 94.3263C151.139 80.1882 159.422 68.958 175.641 62.4845C180.456 60.3568 184.094 57.4803 188 54.0001C188.728 53.3788 189.457 52.7575 190.207 52.1173C194.16 48.669 197.91 45.1242 201.523 41.3244C236.123 5.13057 282.599 -10.7529 329.656 9.9723ZM207.113 44.0939C205.972 45.4272 204.834 46.7631 203.699 48.1017C200.747 51.4 197.401 54.1787 194 57.0001C193.227 57.673 192.453 58.3459 191.656 59.0392C185.807 63.9817 180.014 67.0279 173 70.0001C161.515 75.2224 155.209 84.7346 148.375 95.0001C147.746 95.9334 147.117 96.8667 146.469 97.8283C144.638 100.547 142.818 103.273 141 106C140.419 106.865 139.838 107.73 139.239 108.621C138.429 109.83 138.429 109.83 137.602 111.063C137.123 111.775 136.644 112.488 136.151 113.223C134.169 116.284 133.903 117.99 134.008 121.613C134.025 122.532 134.041 123.45 134.059 124.397C134.103 126.329 134.155 128.261 134.215 130.193C134.352 139.135 134.352 139.135 131 143C121.84 150.933 109.002 155.287 98 160C97.1703 160.356 96.3406 160.712 95.4858 161.078C89.3589 163.621 83.1586 165.493 76.75 167.188C75.7961 167.447 74.8421 167.707 73.8593 167.975C66.902 169.845 60.4254 171.147 53.1875 171.188C52.0466 171.202 50.9058 171.216 49.7304 171.231C46.7955 171.049 44.4667 170.691 41.6523 170C36.8476 168.854 32.2962 168.737 27.375 168.813C26.568 168.813 25.761 168.814 24.9296 168.815C16.3703 168.707 16.3703 168.707 8.49995 171.5C6.54577 174.757 6.65956 176.661 7.25386 180.356C9.10774 186.927 12.3078 194.932 18 199C24.0285 199.659 28.8356 198.477 34.5 196.5C35.3623 196.206 36.2247 195.912 37.1132 195.609C61.0737 187.209 84.8692 177.461 108 167C108.639 166.714 109.277 166.429 109.935 166.134C127.71 158.085 143.557 145.896 157.062 131.875C160.323 128.502 163.911 125.662 167.625 122.813C184.108 110.106 196.324 95.3807 208.566 78.6759C225.177 56.0309 244.217 36.6747 272.644 30.4181C285.113 28.865 299.13 28.6001 311 33.0001C312.464 33.5106 312.464 33.5106 313.957 34.0314C331.654 40.756 343.789 52.2044 352 69.0001C355.459 77.3937 355.551 88.97 352.437 97.5626C350.067 102.452 346.751 106.122 343 110C341.467 111.643 339.943 113.294 338.42 114.946C337.371 116.082 336.319 117.215 335.264 118.345C333.057 120.715 330.948 123.066 328.953 125.621C326.814 128.226 324.548 130.245 321.937 132.375C321.08 133.084 320.223 133.793 319.34 134.524C310.506 141.256 301.272 145.886 290.937 149.875C289.622 150.392 288.307 150.909 286.992 151.426C274.461 156.323 261.786 160.813 249 165C247.914 165.37 246.829 165.74 245.71 166.121C239.048 168.314 233.245 169.481 226.25 169.438C219.037 169.618 213.754 170.28 208 175C207.429 175.456 206.858 175.913 206.269 176.383C205.12 177.346 203.987 178.33 202.871 179.332C199.057 182.732 195.042 185.877 191 189C190.233 189.597 189.466 190.194 188.676 190.809C183.705 194.426 179.277 196.793 173 196C165.518 193.541 158.35 188.648 153.719 182.223C152.511 178.49 152.688 176.758 154 173C157.268 169.955 161.025 167.722 164.812 165.375C165.985 164.626 167.157 163.874 168.327 163.12C170.279 161.863 172.234 160.608 174.194 159.362C180.224 155.525 186.18 151.583 192.129 147.621C194.085 146.32 196.042 145.02 197.999 143.719C200.917 141.78 203.835 139.839 206.751 137.896C237.503 117.432 237.503 117.432 253.687 116.5C275.219 115.256 291.024 109.003 306 92.8751C310.685 87.1672 312.619 81.8526 312.34 74.4845C311.375 67.4314 307.559 62.8564 302.129 58.4767C295.575 53.9311 288.867 53.0341 281 54.0001C264.022 58.3557 251.792 69.8849 239.769 82.0001C238.725 83.0461 237.68 84.0916 236.634 85.1368C234.46 87.3121 232.29 89.4907 230.122 91.672C227.364 94.4473 224.599 97.2159 221.832 99.9823C219.679 102.135 217.529 104.291 215.379 106.448C214.361 107.469 213.343 108.49 212.324 109.509C207.194 114.647 202.152 119.802 197.461 125.346C195.089 128.031 192.439 130.34 189.687 132.625C189.127 133.094 188.566 133.563 187.989 134.046C182.601 138.467 176.961 142.227 170.582 145.082C162.722 148.619 157 153.966 151 160C150.228 160.772 149.456 161.544 148.66 162.34C136.542 175.16 127.255 190.894 117.612 205.585C116.524 207.215 115.41 208.829 114.273 210.425C109.978 216.521 108.851 220.537 110 228C111.386 232.157 113.494 235.406 117.042 238.088C123.663 241.172 131.624 239.061 138.176 236.824C140.903 235.816 143.608 234.755 146.312 233.688C147.829 233.105 149.346 232.524 150.864 231.944C155.924 229.998 160.963 228.003 166 226C166.896 225.645 167.791 225.289 168.714 224.923C183.515 219.044 198.266 213.044 213 207C213.977 206.6 214.954 206.199 215.961 205.786C242.028 195.092 268.033 184.249 294.014 173.349C301.152 170.355 308.292 167.364 315.432 164.377C319.891 162.511 324.349 160.644 328.805 158.772C337.15 155.268 345.502 151.786 353.882 148.369C357.813 146.766 361.739 145.151 365.665 143.536C367.526 142.774 369.389 142.017 371.255 141.266C391.974 133.086 391.974 133.086 405.312 116C407.254 107.529 404.911 101.047 400.68 93.7111C397.508 88.8071 393.879 84.3132 390.195 79.7892C387.731 76.6583 385.421 73.4424 383.125 70.1876C374.688 58.2708 365.722 46.898 356 36.0001C355.285 35.181 355.285 35.181 354.556 34.3453C346.811 25.5562 338.705 20.609 328 16.0001C326.418 15.2789 326.418 15.2789 324.805 14.5431C283.145 -3.84262 237.06 10.8614 207.113 44.0939Z" fill="#F5F5F5"/>
</svg>
